<svg width="800" height="900" viewBox="0 0 800 900" fill="none" xmlns="http://www.w3.org/2000/svg">
  <rect width="800" height="900" fill="#18181B"/>
  <circle cx="700" cy="180" r="260" fill="#EDA23F" fill-opacity="0.2"/>
  <circle cx="150" cy="750" r="240" fill="#3B82F6" fill-opacity="0.2"/>
  <g transform="translate(110, 80)">
    <rect width="580" height="740" rx="32" fill="#27272A" stroke="#3F3F46" stroke-width="2"/>
    <rect x="40" y="40" width="180" height="14" rx="7" fill="#EDA23F"/>
    <rect x="40" y="68" width="360" height="26" rx="6" fill="#FFFFFF"/>
    
    <!-- 7 Client Brand Cards Grid -->
    <!-- Card 1: Cocofina Sugar -->
    <rect x="40" y="120" width="235" height="130" rx="16" fill="#3F3F46"/>
    <rect x="60" y="140" width="120" height="14" rx="4" fill="#EDA23F"/>
    <rect x="60" y="165" width="160" height="10" rx="4" fill="#A1A1AA"/>
    <rect x="60" y="195" width="90" height="30" rx="8" fill="#18181B"/>

    <!-- Card 2: Gatecode Technologies -->
    <rect x="305" y="120" width="235" height="130" rx="16" fill="#3F3F46"/>
    <rect x="325" y="140" width="140" height="14" rx="4" fill="#38BDF8"/>
    <rect x="325" y="165" width="160" height="10" rx="4" fill="#A1A1AA"/>
    <rect x="325" y="195" width="90" height="30" rx="8" fill="#18181B"/>

    <!-- Card 3: Gatexpay -->
    <rect x="40" y="270" width="235" height="130" rx="16" fill="#3F3F46"/>
    <rect x="60" y="290" width="100" height="14" rx="4" fill="#22C55E"/>
    <rect x="60" y="315" width="160" height="10" rx="4" fill="#A1A1AA"/>
    <rect x="60" y="345" width="90" height="30" rx="8" fill="#18181B"/>

    <!-- Card 4: RMAX -->
    <rect x="305" y="270" width="235" height="130" rx="16" fill="#3F3F46"/>
    <rect x="325" y="290" width="90" height="14" rx="4" fill="#F43F5E"/>
    <rect x="325" y="315" width="160" height="10" rx="4" fill="#A1A1AA"/>
    <rect x="325" y="345" width="90" height="30" rx="8" fill="#18181B"/>

    <!-- Card 5: SDPT -->
    <rect x="40" y="420" width="235" height="130" rx="16" fill="#3F3F46"/>
    <rect x="60" y="440" width="90" height="14" rx="4" fill="#818CF8"/>
    <rect x="60" y="465" width="160" height="10" rx="4" fill="#A1A1AA"/>
    <rect x="60" y="495" width="90" height="30" rx="8" fill="#18181B"/>

    <!-- Card 6: Ecobin -->
    <rect x="305" y="420" width="235" height="130" rx="16" fill="#3F3F46"/>
    <rect x="325" y="440" width="100" height="14" rx="4" fill="#10B981"/>
    <rect x="325" y="465" width="160" height="10" rx="4" fill="#A1A1AA"/>
    <rect x="325" y="495" width="90" height="30" rx="8" fill="#18181B"/>

    <!-- Card 7: Damru -->
    <rect x="40" y="570" width="500" height="120" rx="16" fill="#3F3F46"/>
    <rect x="65" y="595" width="140" height="16" rx="4" fill="#F59E0B"/>
    <rect x="65" y="625" width="320" height="12" rx="4" fill="#A1A1AA"/>
  </g>
</svg>
